<mxfile host="app.diagrams.net" modified="2021-05-03T10:51:31.451Z" agent="5.0 (Windows)" etag="v9KoDo5QMAQS2jqn3By1" version="14.6.9" type="github">
  <diagram id="ygdzen8UIL2z9Q3izg6u" name="Page-1">
    <mxGraphModel dx="1422" dy="763" grid="1" gridSize="10" guides="1" tooltips="1" connect="1" arrows="1" fold="1" page="1" pageScale="1" pageWidth="827" pageHeight="1169" math="0" shadow="0">
      <root>
        <mxCell id="0" />
        <mxCell id="1" parent="0" />
        <mxCell id="fhKEaw7kfPtzZ2sWskrr-1" value="Customer" style="shape=umlActor;verticalLabelPosition=bottom;verticalAlign=top;html=1;outlineConnect=0;" parent="1" vertex="1">
          <mxGeometry x="100" y="200" width="40" height="60" as="geometry" />
        </mxCell>
        <mxCell id="fhKEaw7kfPtzZ2sWskrr-2" value="Admin" style="shape=umlActor;verticalLabelPosition=bottom;verticalAlign=top;html=1;outlineConnect=0;" parent="1" vertex="1">
          <mxGeometry x="100" y="485" width="30" height="60" as="geometry" />
        </mxCell>
        <mxCell id="fhKEaw7kfPtzZ2sWskrr-5" value="&lt;br&gt;&lt;br&gt;&lt;br&gt;&lt;br&gt;&lt;br&gt;&lt;br&gt;&lt;br&gt;&lt;br&gt;" style="rounded=0;whiteSpace=wrap;html=1;fillColor=none;" parent="1" vertex="1">
          <mxGeometry x="185" y="120" width="530" height="620" as="geometry" />
        </mxCell>
        <mxCell id="fhKEaw7kfPtzZ2sWskrr-6" value="System Boundry" style="text;html=1;align=center;verticalAlign=middle;resizable=0;points=[];autosize=1;strokeColor=none;" parent="1" vertex="1">
          <mxGeometry x="400" y="100" width="100" height="20" as="geometry" />
        </mxCell>
        <mxCell id="fhKEaw7kfPtzZ2sWskrr-7" value="Create Custom Order" style="ellipse;whiteSpace=wrap;html=1;fillColor=none;" parent="1" vertex="1">
          <mxGeometry x="414" y="150" width="100" height="40" as="geometry" />
        </mxCell>
        <mxCell id="fhKEaw7kfPtzZ2sWskrr-9" value="View my Order" style="ellipse;whiteSpace=wrap;html=1;fillColor=none;" parent="1" vertex="1">
          <mxGeometry x="414" y="270" width="100" height="40" as="geometry" />
        </mxCell>
        <mxCell id="fhKEaw7kfPtzZ2sWskrr-10" value="CRUD Orders" style="ellipse;whiteSpace=wrap;html=1;fillColor=none;" parent="1" vertex="1">
          <mxGeometry x="414" y="580" width="100" height="40" as="geometry" />
        </mxCell>
        <mxCell id="fhKEaw7kfPtzZ2sWskrr-12" value="View Order History" style="ellipse;whiteSpace=wrap;html=1;fillColor=none;" parent="1" vertex="1">
          <mxGeometry x="414" y="460" width="100" height="40" as="geometry" />
        </mxCell>
        <mxCell id="fhKEaw7kfPtzZ2sWskrr-13" value="&lt;span&gt;CRUD&amp;nbsp;&lt;/span&gt;&lt;br&gt;&lt;span&gt;inventory&lt;/span&gt;" style="ellipse;whiteSpace=wrap;html=1;fillColor=none;" parent="1" vertex="1">
          <mxGeometry x="414" y="520" width="100" height="40" as="geometry" />
        </mxCell>
        <mxCell id="fhKEaw7kfPtzZ2sWskrr-17" value="" style="endArrow=classic;html=1;entryX=0;entryY=0.5;entryDx=0;entryDy=0;" parent="1" target="fhKEaw7kfPtzZ2sWskrr-13" edge="1">
          <mxGeometry width="50" height="50" relative="1" as="geometry">
            <mxPoint x="150" y="520" as="sourcePoint" />
            <mxPoint x="200" y="470" as="targetPoint" />
          </mxGeometry>
        </mxCell>
        <mxCell id="fhKEaw7kfPtzZ2sWskrr-18" value="" style="endArrow=classic;html=1;entryX=0;entryY=0.5;entryDx=0;entryDy=0;" parent="1" target="fhKEaw7kfPtzZ2sWskrr-7" edge="1">
          <mxGeometry width="50" height="50" relative="1" as="geometry">
            <mxPoint x="150" y="240" as="sourcePoint" />
            <mxPoint x="200" y="190" as="targetPoint" />
          </mxGeometry>
        </mxCell>
        <mxCell id="fhKEaw7kfPtzZ2sWskrr-22" value="" style="endArrow=classic;html=1;entryX=0;entryY=0.5;entryDx=0;entryDy=0;" parent="1" target="fhKEaw7kfPtzZ2sWskrr-12" edge="1">
          <mxGeometry width="50" height="50" relative="1" as="geometry">
            <mxPoint x="150" y="520" as="sourcePoint" />
            <mxPoint x="420" y="440" as="targetPoint" />
          </mxGeometry>
        </mxCell>
        <mxCell id="fhKEaw7kfPtzZ2sWskrr-24" value="View Carport Drawing" style="ellipse;whiteSpace=wrap;html=1;fillColor=none;" parent="1" vertex="1">
          <mxGeometry x="414" y="210" width="100" height="40" as="geometry" />
        </mxCell>
        <mxCell id="fhKEaw7kfPtzZ2sWskrr-26" value="" style="endArrow=classic;html=1;entryX=0;entryY=0.5;entryDx=0;entryDy=0;" parent="1" target="fhKEaw7kfPtzZ2sWskrr-24" edge="1">
          <mxGeometry width="50" height="50" relative="1" as="geometry">
            <mxPoint x="150" y="240" as="sourcePoint" />
            <mxPoint x="420" y="370" as="targetPoint" />
          </mxGeometry>
        </mxCell>
        <mxCell id="fhKEaw7kfPtzZ2sWskrr-28" value="" style="endArrow=classic;html=1;entryX=0;entryY=0.5;entryDx=0;entryDy=0;" parent="1" target="fhKEaw7kfPtzZ2sWskrr-9" edge="1">
          <mxGeometry width="50" height="50" relative="1" as="geometry">
            <mxPoint x="150" y="240" as="sourcePoint" />
            <mxPoint x="420" y="370" as="targetPoint" />
          </mxGeometry>
        </mxCell>
        <mxCell id="fhKEaw7kfPtzZ2sWskrr-33" value="" style="endArrow=classic;html=1;entryX=0;entryY=0.5;entryDx=0;entryDy=0;" parent="1" target="fhKEaw7kfPtzZ2sWskrr-10" edge="1">
          <mxGeometry width="50" height="50" relative="1" as="geometry">
            <mxPoint x="150" y="520" as="sourcePoint" />
            <mxPoint x="420" y="370" as="targetPoint" />
          </mxGeometry>
        </mxCell>
        <mxCell id="fhKEaw7kfPtzZ2sWskrr-35" value="View Material List" style="ellipse;whiteSpace=wrap;html=1;fillColor=none;" parent="1" vertex="1">
          <mxGeometry x="414" y="320" width="100" height="40" as="geometry" />
        </mxCell>
        <mxCell id="fhKEaw7kfPtzZ2sWskrr-36" value="" style="endArrow=classic;html=1;entryX=0;entryY=0.5;entryDx=0;entryDy=0;" parent="1" target="fhKEaw7kfPtzZ2sWskrr-35" edge="1">
          <mxGeometry width="50" height="50" relative="1" as="geometry">
            <mxPoint x="150" y="240" as="sourcePoint" />
            <mxPoint x="420" y="370" as="targetPoint" />
          </mxGeometry>
        </mxCell>
        <mxCell id="zwA4oIyYL0pUJ5uWJ_54-3" value="test" style="rounded=0;whiteSpace=wrap;html=1;" vertex="1" parent="1">
          <mxGeometry x="380" y="20" width="120" height="60" as="geometry" />
        </mxCell>
      </root>
    </mxGraphModel>
  </diagram>
</mxfile>
